# xmcd CD database file
#
# Track frame offsets:
#	150
#	11953
#	26717
#	39723
#	51832
#	61593
#	71063
#	82801
#	92114
#	102537
#	114355
#	124790
#	137829
#	153672
#	164697
#	177389
#	186380
#	198574
#	213146
#	226913
#	235504
#	244030
#	255279
#	264848
#	280046
#	311265
#
# Disc length: 4440 seconds
#
# Revision: 0
# Processed by: cddbd v1.5.2PL0 Copyright (c) Steve Scherf et al.
# Submitted via: CDex 1.70beta2
#
DISCID=6511561a
DTITLE=Julie London - The Very Best Of CD2
DYEAR=2003
DGENRE=Jazz
TTITLE0=Sophisticated lady
TTITLE1=Love is here to stay
TTITLE2=Days of wine and roses
TTITLE3=Vaya con dios
TTITLE4=Besame mucho
TTITLE5=Desafinado
TTITLE6=Sway (Quien sera)
TTITLE7=Let there be love
TTITLE8=Why don't you do right
TTITLE9=How did he look
TTITLE10=The end of a love affair
TTITLE11=Bewitched
TTITLE12=Am I blue?
TTITLE13=Sentimental journey
TTITLE14=Call me irresponsible
TTITLE15=Fascination
TTITLE16=Girl talk
TTITLE17=Easy Street
TTITLE18=I've got you under my skin
TTITLE19=Goody goody
TTITLE20=No moon at all
TTITLE21=Easy to love
TTITLE22=Gone with the wind
TTITLE23=Light my fire
TTITLE24=Every time we say goodbye
TTITLE25=(data)
EXTD=YEAR: 2003
EXTT0=
EXTT1=
EXTT2=
EXTT3=
EXTT4=
EXTT5=
EXTT6=
EXTT7=
EXTT8=
EXTT9=
EXTT10=
EXTT11=
EXTT12=
EXTT13=
EXTT14=
EXTT15=
EXTT16=
EXTT17=
EXTT18=
EXTT19=
EXTT20=
EXTT21=
EXTT22=
EXTT23=
EXTT24=
EXTT25=
PLAYORDER=
